<?xml version="1.0" encoding="utf-8"?>
<!-- Generator: Adobe Illustrator 24.0.0, SVG Export Plug-In . SVG Version: 6.00 Build 0)  -->
<svg version="1.1" id="Layer_1" xmlns="http://www.w3.org/2000/svg" xmlns:xlink="http://www.w3.org/1999/xlink" x="0px" y="0px"
	 viewBox="0 0 26 26" style="enable-background:new 0 0 26 26;" xml:space="preserve">
<path d="M13,0C5.8,0,0,5.8,0,13c0,7.2,5.8,13,13,13c7.2,0,13-5.8,13-13C26,5.8,20.2,0,13,0z M10.2,23.3c0,0.5,0,0.5-0.5,0.3
	c-1.5-0.5-2.7-1.4-3.4-2.8C6,20.2,5.9,19.6,5.9,19c0-3.9,0-7.9,0-11.8c0-2.5,1.7-4.2,4-4.9c0.3-0.1,0.2,0.1,0.2,0.3
	c0,1.3,0,2.6,0,3.8c0,2.2,0,4.4,0,6.6c0,0,0,0,0,0C10.2,16.4,10.2,19.9,10.2,23.3z M16.1,23.7c-0.3,0.1-0.3,0-0.3-0.3
	c0-3.5,0-6.9,0-10.4c0,0,0,0,0,0c0-3.4,0-6.8,0-10.2c0-0.6,0-0.6,0.6-0.4C18.2,3,19.5,4.2,20,6.1c0.1,0.4,0.1,0.8,0.1,1.2
	c0,3.7,0,7.5,0,11.2C20.1,21.3,18.1,23.1,16.1,23.7z"/>
</svg>
